<mxfile host="app.diagrams.net" modified="2023-08-31T07:15:42.643Z" agent="Mozilla/5.0 (Windows NT 10.0; Win64; x64) AppleWebKit/537.36 (KHTML, like Gecko) Chrome/113.0.0.0 Safari/537.36 Edg/113.0.1774.50" etag="q_TMaXfoz8llAWhZsay5" version="21.6.6" type="github">
  <diagram id="R2lEEEUBdFMjLlhIrx00" name="Page-1">
    <mxGraphModel dx="1166" dy="743" grid="1" gridSize="10" guides="1" tooltips="1" connect="1" arrows="1" fold="1" page="1" pageScale="1" pageWidth="850" pageHeight="1100" math="0" shadow="0" extFonts="Permanent Marker^https://fonts.googleapis.com/css?family=Permanent+Marker">
      <root>
        <mxCell id="0" />
        <mxCell id="1" parent="0" />
        <mxCell id="xvkgQrIf-qjmkDvSw3I_-27" style="edgeStyle=orthogonalEdgeStyle;curved=1;rounded=0;orthogonalLoop=1;jettySize=auto;html=1;exitX=1;exitY=0.75;exitDx=0;exitDy=0;entryX=0;entryY=0;entryDx=0;entryDy=0;" parent="1" source="xvkgQrIf-qjmkDvSw3I_-1" target="xvkgQrIf-qjmkDvSw3I_-6" edge="1">
          <mxGeometry relative="1" as="geometry" />
        </mxCell>
        <mxCell id="xvkgQrIf-qjmkDvSw3I_-37" value="make plan" style="edgeLabel;html=1;align=center;verticalAlign=middle;resizable=0;points=[];" parent="xvkgQrIf-qjmkDvSw3I_-27" vertex="1" connectable="0">
          <mxGeometry x="-0.3025" y="-12" relative="1" as="geometry">
            <mxPoint as="offset" />
          </mxGeometry>
        </mxCell>
        <mxCell id="xvkgQrIf-qjmkDvSw3I_-1" value="User" style="rounded=0;whiteSpace=wrap;html=1;" parent="1" vertex="1">
          <mxGeometry x="120" y="280" width="120" height="60" as="geometry" />
        </mxCell>
        <mxCell id="xvkgQrIf-qjmkDvSw3I_-32" style="edgeStyle=orthogonalEdgeStyle;curved=1;rounded=0;orthogonalLoop=1;jettySize=auto;html=1;exitX=1;exitY=0.25;exitDx=0;exitDy=0;entryX=0;entryY=1;entryDx=0;entryDy=0;" parent="1" source="xvkgQrIf-qjmkDvSw3I_-3" target="xvkgQrIf-qjmkDvSw3I_-6" edge="1">
          <mxGeometry relative="1" as="geometry" />
        </mxCell>
        <mxCell id="xvkgQrIf-qjmkDvSw3I_-38" value="report flight status" style="edgeLabel;html=1;align=center;verticalAlign=middle;resizable=0;points=[];" parent="xvkgQrIf-qjmkDvSw3I_-32" vertex="1" connectable="0">
          <mxGeometry x="-0.2871" y="15" relative="1" as="geometry">
            <mxPoint as="offset" />
          </mxGeometry>
        </mxCell>
        <mxCell id="xvkgQrIf-qjmkDvSw3I_-3" value="Drone" style="rounded=0;whiteSpace=wrap;html=1;" parent="1" vertex="1">
          <mxGeometry x="120" y="540" width="120" height="60" as="geometry" />
        </mxCell>
        <mxCell id="xvkgQrIf-qjmkDvSw3I_-4" value="data center" style="rounded=0;whiteSpace=wrap;html=1;" parent="1" vertex="1">
          <mxGeometry x="520" y="540" width="120" height="60" as="geometry" />
        </mxCell>
        <mxCell id="xvkgQrIf-qjmkDvSw3I_-30" style="edgeStyle=orthogonalEdgeStyle;curved=1;rounded=0;orthogonalLoop=1;jettySize=auto;html=1;exitX=0;exitY=0.75;exitDx=0;exitDy=0;entryX=1;entryY=0;entryDx=0;entryDy=0;" parent="1" source="xvkgQrIf-qjmkDvSw3I_-5" target="xvkgQrIf-qjmkDvSw3I_-6" edge="1">
          <mxGeometry relative="1" as="geometry" />
        </mxCell>
        <mxCell id="xvkgQrIf-qjmkDvSw3I_-39" value="assign plan;&lt;br&gt;alter state" style="edgeLabel;html=1;align=center;verticalAlign=middle;resizable=0;points=[];" parent="xvkgQrIf-qjmkDvSw3I_-30" vertex="1" connectable="0">
          <mxGeometry x="-0.1845" y="12" relative="1" as="geometry">
            <mxPoint x="-13" y="13" as="offset" />
          </mxGeometry>
        </mxCell>
        <mxCell id="xvkgQrIf-qjmkDvSw3I_-5" value="Operator" style="rounded=0;whiteSpace=wrap;html=1;" parent="1" vertex="1">
          <mxGeometry x="510" y="280" width="120" height="60" as="geometry" />
        </mxCell>
        <mxCell id="xvkgQrIf-qjmkDvSw3I_-31" style="edgeStyle=orthogonalEdgeStyle;curved=1;rounded=0;orthogonalLoop=1;jettySize=auto;html=1;exitX=0;exitY=1;exitDx=0;exitDy=0;entryX=0.75;entryY=0;entryDx=0;entryDy=0;" parent="1" source="xvkgQrIf-qjmkDvSw3I_-6" target="xvkgQrIf-qjmkDvSw3I_-3" edge="1">
          <mxGeometry relative="1" as="geometry" />
        </mxCell>
        <mxCell id="xvkgQrIf-qjmkDvSw3I_-36" value="send plan;&lt;br&gt;take off/landing" style="edgeLabel;html=1;align=center;verticalAlign=middle;resizable=0;points=[];" parent="xvkgQrIf-qjmkDvSw3I_-31" vertex="1" connectable="0">
          <mxGeometry x="-0.0711" y="9" relative="1" as="geometry">
            <mxPoint as="offset" />
          </mxGeometry>
        </mxCell>
        <mxCell id="xvkgQrIf-qjmkDvSw3I_-33" style="edgeStyle=orthogonalEdgeStyle;curved=1;rounded=0;orthogonalLoop=1;jettySize=auto;html=1;exitX=1;exitY=1;exitDx=0;exitDy=0;entryX=0.25;entryY=0;entryDx=0;entryDy=0;" parent="1" source="xvkgQrIf-qjmkDvSw3I_-6" target="xvkgQrIf-qjmkDvSw3I_-4" edge="1">
          <mxGeometry relative="1" as="geometry" />
        </mxCell>
        <mxCell id="xvkgQrIf-qjmkDvSw3I_-40" value="flight data" style="edgeLabel;html=1;align=center;verticalAlign=middle;resizable=0;points=[];" parent="xvkgQrIf-qjmkDvSw3I_-33" vertex="1" connectable="0">
          <mxGeometry x="-0.2887" y="-9" relative="1" as="geometry">
            <mxPoint as="offset" />
          </mxGeometry>
        </mxCell>
        <mxCell id="xvkgQrIf-qjmkDvSw3I_-6" value="drone control system" style="ellipse;whiteSpace=wrap;html=1;aspect=fixed;" parent="1" vertex="1">
          <mxGeometry x="335" y="390" width="90" height="90" as="geometry" />
        </mxCell>
      </root>
    </mxGraphModel>
  </diagram>
</mxfile>
